<svg aria-hidden="true" xmlns="http://www.w3.org/2000/svg">
  <defs>
    <symbol id="favicon" viewBox="0 0 32 32">
      <path fill="#fff" style="fill:var(--color1, #fff)" d="M0 0h32v32H0V0z"/>
      <path fill="#ffe550" style="fill:var(--color2, #ffe550)" d="M13.557 6.456c1.012-1.982 3.84-1.982 4.852 0l1.281 2.51a2.726 2.726 0 0 0 1.999 1.453l2.775.441c2.198.35 3.073 3.049 1.499 4.625l-1.98 1.983a2.73 2.73 0 0 0-.765 2.356l.437 2.773c.347 2.2-1.942 3.868-3.925 2.859l-2.513-1.278a2.722 2.722 0 0 0-2.467 0l-2.513 1.278c-1.983 1.009-4.272-.659-3.925-2.859l.437-2.773a2.731 2.731 0 0 0-.765-2.356l-1.98-1.983c-1.574-1.576-.699-4.275 1.499-4.625l2.775-.441a2.728 2.728 0 0 0 1.999-1.453l1.281-2.51z"/>
      <path fill="#bbf330" style="fill:var(--color3, #bbf330)" d="M16 32C7.163 32 0 24.837 0 16S7.163 0 16 0s16 7.163 16 16-7.163 16-16 16zm0-1.706c7.899 0 14.297-6.402 14.297-14.294S23.899 1.706 16 1.706 1.703 8.108 1.703 16 8.101 30.294 16 30.294z"/>
    </symbol>
    <symbol id="menu-btn" viewBox="0 0 32 32">
      <path fill="#7eb101" style="fill:var(--color4, #7eb101)" d="M2.666 8A1.335 1.335 0 0 1 4 6.666h24A1.33 1.33 0 0 1 29.333 8 1.333 1.333 0 0 1 28 9.334H4A1.335 1.335 0 0 1 2.666 8zm0 8.043A1.33 1.33 0 0 1 4 14.71h24a1.333 1.333 0 1 1 0 2.666H4a1.333 1.333 0 0 1-1.334-1.333zM4 22.752a1.337 1.337 0 0 0-1.334 1.333A1.33 1.33 0 0 0 4 25.418h24a1.333 1.333 0 1 0 0-2.666H4z"/>
    </symbol>
    <symbol id="click-left" viewBox="0 0 37 32">
      <path fill="#fff" style="fill:var(--color1, #fff)" d="M2.667 21.333v-16A5.333 5.333 0 0 1 8 0h21.333a5.333 5.333 0 0 1 5.333 5.333v16a5.333 5.333 0 0 1-5.333 5.333H8a5.333 5.333 0 0 1-5.333-5.333z"/>
      <path fill="#2c2c2c" style="fill:var(--color5, #2c2c2c)" d="m11.634 13.937 9.288 8.85a.832.832 0 0 0 1.15 0l.01-.01a.78.78 0 0 0 .238-.555.763.763 0 0 0-.238-.555l-8.747-8.333 8.747-8.33a.78.78 0 0 0 .238-.555.763.763 0 0 0-.238-.555l-.01-.01a.832.832 0 0 0-1.15 0l-9.288 8.85a.82.82 0 0 0-.258.603.837.837 0 0 0 .258.603z"/>
    </symbol>
    <symbol id="click-right" viewBox="0 0 37 32">
      <path fill="#fff" style="fill:var(--color1, #fff)" d="M34.667 5.333v16a5.333 5.333 0 0 1-5.333 5.333H8.001a5.333 5.333 0 0 1-5.333-5.333v-16A5.333 5.333 0 0 1 8.001 0h21.333a5.333 5.333 0 0 1 5.333 5.333z"/>
      <path fill="#2c2c2c" style="fill:var(--color5, #2c2c2c)" d="m25.7 12.73-9.288-8.85a.832.832 0 0 0-1.15 0l-.01.01a.78.78 0 0 0-.238.555.763.763 0 0 0 .238.555l8.747 8.333-8.747 8.33a.78.78 0 0 0-.238.555.763.763 0 0 0 .238.555l.01.01a.832.832 0 0 0 1.15 0l9.288-8.85a.82.82 0 0 0 .258-.603.837.837 0 0 0-.258-.603z"/>
    </symbol>
    <symbol id="rocket" viewBox="0 0 32 32">
      <path fill="#7eb101" style="fill:var(--color4, #7eb101)" d="m7.233 13.633 3.533 1.5c.4-.8.828-1.589 1.283-2.367s.939-1.522 1.45-2.233L10.866 10l-3.633 3.633zm5.134 2.7 4.433 4.433c1.267-.578 2.456-1.233 3.567-1.967s2.011-1.444 2.7-2.133c1.8-1.8 3.122-3.644 3.967-5.533s1.3-4.022 1.367-6.4c-2.378.067-4.511.522-6.4 1.367s-3.733 2.167-5.533 3.967c-.689.689-1.4 1.589-2.133 2.7s-1.389 2.3-1.967 3.567zm7.633-3.2c-.444-.444-.667-.995-.667-1.65s.222-1.206.667-1.65.994-.667 1.65-.667c.656 0 1.206.222 1.65.667s.667.994.667 1.65c0 .655-.222 1.206-.667 1.65s-.994.667-1.65.667-1.206-.222-1.65-.667zM19.5 25.9l3.633-3.633-.533-2.633c-.711.511-1.456.994-2.233 1.45S18.8 21.967 18 22.367l1.5 3.533zM30.367 2.767c.2 3.022-.178 5.778-1.133 8.267s-2.533 4.833-4.733 7.033l-.133.133.733 3.667c.067.333.05.656-.05.967s-.272.589-.517.833l-5.7 5.733-2.833-6.6-5.667-5.667-6.6-2.833 5.733-5.7c.244-.244.522-.417.833-.517s.633-.117.967-.05l3.667.733c.022-.022.044-.039.067-.05s.044-.028.067-.05c2.2-2.2 4.544-3.783 7.033-4.75s5.244-1.35 8.267-1.15zm-24.4 18.4c.778-.778 1.728-1.172 2.85-1.183s2.072.372 2.85 1.15c.778.778 1.161 1.728 1.15 2.85s-.406 2.072-1.183 2.85c-.578.578-1.472 1.055-2.683 1.433s-3.028.733-5.45 1.067c.333-2.422.683-4.244 1.05-5.467s.839-2.122 1.417-2.7zm1.4 1.433c-.311.333-.589.856-.833 1.567s-.456 1.622-.633 2.733c1.111-.178 2.022-.389 2.733-.633s1.233-.522 1.567-.833c.422-.378.639-.85.65-1.417s-.183-1.061-.583-1.483c-.422-.4-.917-.595-1.483-.583s-1.039.228-1.417.65z"/>
    </symbol>
    <symbol id="touch-app" viewBox="0 0 32 32">
      <path fill="#7eb101" style="fill:var(--color4, #7eb101)" d="M15.5 1.333c2.022 0 3.75.706 5.183 2.117s2.15 3.128 2.15 5.15c0 1.156-.25 2.244-.75 3.267s-1.206 1.889-2.117 2.6h-1.133V12.8c.645-.511 1.139-1.133 1.483-1.867s.517-1.511.517-2.333c0-1.467-.522-2.711-1.567-3.733s-2.3-1.533-3.767-1.533-2.722.511-3.767 1.533c-1.044 1.022-1.567 2.267-1.567 3.733 0 .822.172 1.6.517 2.333s.839 1.356 1.483 1.867v2.4c-1.245-.645-2.222-1.556-2.933-2.733S8.165 10 8.165 8.6c0-2.022.717-3.739 2.15-5.15s3.161-2.117 5.183-2.117zm-1.267 28c-.378 0-.733-.072-1.067-.217s-.622-.339-.867-.583l-6.867-6.867 1.867-1.933c.311-.311.661-.55 1.05-.717s.794-.194 1.217-.083l2.6.6V8.666c0-.933.322-1.722.967-2.367s1.433-.967 2.367-.967 1.722.322 2.367.967c.644.644.967 1.433.967 2.367v5.733h.867c.111 0 .211.022.3.067s.189.089.3.133l4.933 2.4c.533.244.928.639 1.183 1.183s.328 1.106.217 1.683l-1.2 7.267c-.111.645-.422 1.172-.933 1.583s-1.089.617-1.733.617h-8.533zm-.266-2h9.367l1.433-8.3-6.1-3.033h-1.833V8.667c0-.4-.122-.722-.367-.967s-.567-.367-.967-.367-.722.122-.967.367c-.244.244-.367.567-.367.967v13.3l-5.133-1.1-.767.767 5.7 5.7zm9.366 0z"/>
    </symbol>
    <symbol id="stars" viewBox="0 0 200 32">
      <path fill="#ffe550" style="fill:var(--color2, #ffe550)" d="M15.639 1.037c.593-1.383 2.611-1.383 3.204 0l3.498 8.164c.25.583.815.982 1.463 1.032l9.079.707c1.538.12 2.162 1.983.99 2.958l-6.917 5.752a1.656 1.656 0 0 0-.559 1.67l2.113 8.6c.358 1.457-1.275 2.609-2.592 1.828l-7.773-4.609a1.781 1.781 0 0 0-1.809 0l-7.773 4.609c-1.317.781-2.95-.371-2.592-1.828l2.113-8.6a1.656 1.656 0 0 0-.559-1.67L.607 13.898c-1.172-.975-.548-2.838.99-2.958l9.079-.707a1.73 1.73 0 0 0 1.463-1.032l3.498-8.164zM57.019 1.037c.593-1.383 2.611-1.383 3.204 0l3.498 8.164c.25.583.815.982 1.463 1.032l9.079.707c1.538.12 2.162 1.983.99 2.958l-6.917 5.752a1.656 1.656 0 0 0-.559 1.67l2.113 8.6c.358 1.457-1.275 2.609-2.592 1.828l-7.773-4.609a1.781 1.781 0 0 0-1.809 0l-7.773 4.609c-1.317.781-2.95-.371-2.592-1.828l2.113-8.6a1.656 1.656 0 0 0-.559-1.67l-6.918-5.752c-1.172-.975-.548-2.838.99-2.958l9.079-.707a1.73 1.73 0 0 0 1.463-1.032l3.498-8.164zM98.398 1.037c.593-1.383 2.611-1.383 3.204 0l3.498 8.164c.25.583.815.982 1.463 1.032l9.079.707c1.538.12 2.162 1.983.99 2.958l-6.918 5.752a1.656 1.656 0 0 0-.559 1.67l2.113 8.6c.358 1.457-1.275 2.609-2.592 1.828l-7.773-4.609a1.781 1.781 0 0 0-1.809 0l-7.773 4.609c-1.317.781-2.95-.371-2.592-1.828l2.114-8.6a1.656 1.656 0 0 0-.559-1.67l-6.918-5.752c-1.172-.975-.548-2.838.99-2.958l9.08-.707a1.731 1.731 0 0 0 1.463-1.032l3.498-8.164zM139.777 1.037c.593-1.383 2.611-1.383 3.204 0l3.498 8.164c.25.583.815.982 1.463 1.032l9.079.707c1.538.12 2.162 1.983.99 2.958l-6.918 5.752a1.656 1.656 0 0 0-.559 1.67l2.113 8.6c.358 1.457-1.275 2.609-2.592 1.828l-7.773-4.609a1.781 1.781 0 0 0-1.809 0l-7.773 4.609c-1.317.781-2.95-.371-2.592-1.828l2.114-8.6a1.656 1.656 0 0 0-.559-1.67l-6.918-5.752c-1.172-.975-.548-2.838.99-2.958l9.08-.707a1.731 1.731 0 0 0 1.463-1.032l3.498-8.164zM181.157 1.037c.593-1.383 2.611-1.383 3.204 0l3.498 8.164c.25.583.815.982 1.463 1.032l9.079.707c1.538.12 2.163 1.983.99 2.958l-6.918 5.752a1.656 1.656 0 0 0-.559 1.67l2.113 8.6c.358 1.457-1.275 2.609-2.592 1.828l-7.773-4.609a1.781 1.781 0 0 0-1.809 0l-7.773 4.609c-1.317.781-2.95-.371-2.592-1.828l2.114-8.6a1.656 1.656 0 0 0-.559-1.67l-6.918-5.752c-1.172-.975-.548-2.838.99-2.958l9.08-.707a1.731 1.731 0 0 0 1.463-1.032l3.498-8.164z"/>
    </symbol>
    <symbol id="error" viewBox="0 0 32 32">
      <path fill="none" stroke="#ff705d" style="stroke:var(--color6, #ff705d)" stroke-linejoin="round" stroke-linecap="round" stroke-width="2.286" d="M16 11.429v6.857M16.002 26.286a1.143 1.143 0 1 0 0-2.287 1.143 1.143 0 0 0 0 2.287z"/>
      <path fill="none" stroke="#ff705d" style="stroke:var(--color6, #ff705d)" stroke-linejoin="round" stroke-linecap="round" stroke-width="2.286" d="M18.036 2.4a2.286 2.286 0 0 0-4.068 0L1.397 27.543a2.281 2.281 0 0 0 .094 2.224 2.287 2.287 0 0 0 1.941 1.09h25.143a2.28 2.28 0 0 0 1.941-1.09 2.292 2.292 0 0 0 .093-2.224L18.038 2.4z"/>
    </symbol>
  </defs>
</svg>